<?xml version="1.0" encoding="UTF-8"?><svg id="Layer_2" xmlns="http://www.w3.org/2000/svg" viewBox="0 0 328.7 174.1"><defs><style>.cls-1{fill:#edb10d;}.cls-2{fill:#7458a1;}</style></defs><rect class="cls-1" x="26.4" y="21.2" width="29.68" height="42.67"/><rect class="cls-1" x="236" y="94.01" width="29.68" height="94.5" transform="translate(392.09 -109.58) rotate(90)"/><path class="cls-1" d="M128.56,126.41H56.08v-42.67H26.4v57.93c0,7.97,6.46,14.43,14.43,14.43h87.74c-3.15-4.11-5.02-9.26-5.02-14.84s1.87-10.73,5.02-14.84Z"/><path class="cls-1" d="M192.85,126.41v29.68h-27.95c3.15-4.11,5.02-9.26,5.02-14.84s-1.87-10.73-5.02-14.84h27.95Z"/><rect class="cls-1" x="22.09" y="12.79" width="38.29" height="6.1" rx="3.05" ry="3.05"/><rect class="cls-1" x="22.09" y="66.19" width="38.29" height="6.1" rx="3.05" ry="3.05"/><rect class="cls-1" x="22.09" y="75.33" width="38.29" height="6.1" rx="3.05" ry="3.05"/><rect class="cls-1" x="179.08" y="138.21" width="38.29" height="6.1" rx="3.05" ry="3.05" transform="translate(339.48 -56.97) rotate(90)"/><rect class="cls-1" x="284.42" y="138.21" width="38.29" height="6.1" rx="3.05" ry="3.05" transform="translate(444.82 -162.31) rotate(90)"/><path class="cls-1" d="M146.73,121.19c-11.08,0-20.06,8.98-20.06,20.06s8.98,20.06,20.06,20.06,20.06-8.98,20.06-20.06-8.98-20.06-20.06-20.06Zm14.6,17.57h-8.48c-.67-1.64-1.98-2.95-3.63-3.63v-8.48c6.18,1.05,11.05,5.92,12.1,12.1Zm-17.1-12.1v8.48c-1.64,.67-2.95,1.98-3.63,3.63h-8.47c1.05-6.18,5.92-11.05,12.1-12.1Zm-12.1,17.1h8.48c.67,1.64,1.98,2.95,3.63,3.63v8.48c-6.18-1.05-11.05-5.92-12.1-12.1Zm17.1,12.1v-8.48c1.64-.67,2.95-1.98,3.63-3.63h8.48c-1.05,6.18-5.92,11.05-12.1,12.1Z"/><g><path class="cls-2" d="M72.3,46.37c0-13.92,10.54-23.32,24.4-23.32,10.88,0,16.7,6.15,19.67,12.1l-10,4.73c-1.49-3.58-5.34-6.56-9.67-6.56-7.37,0-12.57,5.68-12.57,13.05s5.2,13.05,12.57,13.05c4.33,0,8.18-2.97,9.67-6.56l10,4.73c-2.91,5.81-8.79,12.1-19.67,12.1-13.86,0-24.4-9.46-24.4-23.32Z"/><path class="cls-2" d="M133.54,68.88v-18.18l-17.1-26.9h13.11l9.8,16.63,9.67-16.63h13.18l-17.03,26.9v18.18h-11.63Z"/><path class="cls-2" d="M167.2,68.88V23.8h25.55c8.92,0,13.18,5.81,13.18,11.49s-3.45,9.4-7.71,10.34c4.8,.74,8.58,5.34,8.58,11.02,0,6.56-4.39,12.23-13.25,12.23h-26.36Zm26.9-31.57c0-2.16-1.62-3.72-3.99-3.72h-11.29v7.5h11.29c2.37,0,3.99-1.55,3.99-3.79Zm.88,17.71c0-2.23-1.62-4.06-4.46-4.06h-11.69v8.11h11.69c2.77,0,4.46-1.62,4.46-4.06Z"/><path class="cls-2" d="M214.85,68.88V23.8h33.05v10.14h-21.43v7.03h20.95v10.14h-20.95v7.64h21.43v10.14h-33.05Z"/><path class="cls-2" d="M281.5,68.88l-7.57-15.14h-5.95v15.14h-11.63V23.8h22.58c10,0,15.68,6.62,15.68,15.01,0,7.84-4.8,12.03-8.99,13.52l9.19,16.56h-13.32Zm1.28-30.15c0-3.04-2.57-4.8-5.61-4.8h-9.19v9.67h9.19c3.04,0,5.61-1.69,5.61-4.87Z"/></g><g><path class="cls-2" d="M75.88,114.33v-35.87h15.76c7.53,0,11.72,5.16,11.72,11.24s-4.25,11.24-11.72,11.24h-9.46v13.39h-6.29Zm21.03-24.63c0-3.44-2.58-5.7-6.13-5.7h-8.6v11.4h8.6c3.55,0,6.13-2.26,6.13-5.7Z"/><path class="cls-2" d="M108.57,114.33v-35.87h6.29v35.87h-6.29Z"/><path class="cls-2" d="M122.5,114.33v-35.87h15.76c7.53,0,11.72,5.16,11.72,11.24s-4.25,11.24-11.72,11.24h-9.46v13.39h-6.29Zm21.03-24.63c0-3.44-2.58-5.7-6.13-5.7h-8.6v11.4h8.6c3.55,0,6.13-2.26,6.13-5.7Z"/><path class="cls-2" d="M155.19,114.33v-35.87h24.58v5.54h-18.28v9.3h17.91v5.54h-17.91v9.95h18.28v5.54h-24.58Z"/><path class="cls-2" d="M186.22,114.33v-35.87h6.29v30.33h15.81v5.54h-22.1Z"/><path class="cls-2" d="M214.02,114.33v-35.87h6.29v35.87h-6.29Z"/><path class="cls-2" d="M252.95,114.33l-18.71-25.6v25.6h-6.29v-35.87h6.45l18.34,24.9v-24.9h6.29v35.87h-6.08Z"/><path class="cls-2" d="M266.66,114.33v-35.87h24.58v5.54h-18.28v9.3h17.91v5.54h-17.91v9.95h18.28v5.54h-24.58Z"/></g></svg>